<?xml version="1.0" standalone="no"?>
<!DOCTYPE svg PUBLIC "-//W3C//DTD SVG 20010904//EN"
 "http://www.w3.org/TR/2001/REC-SVG-20010904/DTD/svg10.dtd">
<svg version="1.0" xmlns="http://www.w3.org/2000/svg"
 width="600.000000pt" height="600.000000pt" viewBox="0 0 600.000000 600.000000"
 preserveAspectRatio="xMidYMid meet">
<metadata>
Created by potrace 1.11, written by Peter Selinger 2001-2013
</metadata>
<g transform="translate(0.000000,600.000000) scale(0.100000,-0.100000)"
fill="#000000" stroke="none">
<path d="M3640 5924 c0 -3 13 -38 29 -77 16 -40 41 -103 56 -142 15 -38 32
-76 39 -84 6 -8 10 -17 9 -20 -4 -13 10 -51 19 -51 5 0 7 -4 4 -8 -2 -4 1 -21
9 -37 38 -87 64 -155 58 -155 -3 0 1 -7 8 -16 7 -9 14 -21 15 -28 3 -14 101
-255 113 -276 5 -9 12 -30 16 -48 3 -18 10 -32 14 -32 4 0 8 -7 9 -15 1 -8 3
-22 4 -30 1 -8 5 -15 10 -15 4 0 8 -5 8 -11 0 -12 22 -66 45 -112 10 -18 11
-25 3 -21 -7 4 -3 -6 9 -22 11 -16 18 -35 16 -41 -3 -7 0 -13 6 -13 6 0 10 -3
9 -7 -3 -9 32 -103 44 -119 4 -6 5 -14 1 -17 -3 -4 -1 -7 6 -7 7 0 10 -4 6 -9
-3 -5 -1 -12 5 -16 5 -3 10 -12 10 -19 0 -8 12 -40 27 -72 14 -33 28 -66 29
-74 2 -8 7 -23 13 -35 5 -11 20 -45 31 -75 33 -84 42 -103 52 -124 5 -10 11
-26 13 -35 2 -9 19 -54 38 -101 19 -47 46 -112 58 -145 13 -33 28 -63 34 -67
5 -4 6 -8 1 -8 -5 0 -3 -7 4 -15 7 -8 10 -15 7 -15 -4 0 7 -29 23 -64 15 -35
26 -67 23 -70 -4 -3 -2 -6 4 -6 6 0 14 -7 17 -16 4 -10 2 -13 -6 -8 -7 4 -3
-6 9 -22 11 -16 21 -33 21 -37 0 -4 13 -40 28 -80 16 -40 29 -74 30 -77 0 -3
9 -23 19 -45 9 -22 18 -44 20 -50 1 -5 8 -23 15 -40 7 -16 14 -33 15 -37 2 -5
4 -11 5 -15 1 -5 2 -11 1 -15 0 -5 4 -8 10 -8 5 0 7 -4 4 -10 -3 -5 -1 -10 5
-10 6 0 9 -4 5 -9 -3 -6 4 -26 15 -45 11 -20 20 -39 21 -44 1 -4 6 -18 11 -32
5 -14 15 -42 21 -62 7 -21 16 -38 20 -38 5 0 5 -4 2 -10 -3 -5 -1 -10 4 -10 6
0 10 -3 10 -7 -3 -16 14 -73 21 -73 4 0 10 -10 13 -22 8 -38 31 -93 42 -100 6
-4 6 -8 1 -8 -5 0 -3 -7 4 -15 7 -8 9 -15 5 -15 -4 0 -2 -7 5 -15 7 -8 9 -15
4 -15 -5 0 -3 -4 3 -8 7 -4 14 -19 15 -32 2 -14 7 -28 12 -32 5 -3 11 -17 13
-29 2 -13 8 -26 14 -30 6 -3 9 -8 8 -10 -2 -2 19 -60 46 -129 27 -69 49 -128
47 -132 -1 -5 3 -8 8 -8 6 0 10 -6 10 -14 0 -7 8 -31 17 -52 9 -22 18 -43 19
-49 1 -5 10 -28 20 -50 10 -22 19 -43 20 -47 1 -5 3 -11 4 -15 1 -5 2 -11 1
-15 0 -5 4 -8 10 -8 5 0 7 -4 4 -10 -3 -5 -1 -10 4 -10 6 0 10 -3 9 -7 -4 -10
32 -105 43 -118 5 -5 9 -17 9 -27 0 -10 5 -18 10 -18 6 0 10 -6 9 -13 -1 -6 2
-23 8 -37 6 -14 12 -29 13 -35 1 -5 6 -16 12 -22 6 -7 7 -13 3 -13 -4 0 -1
-10 7 -23 8 -12 23 -48 33 -79 11 -32 23 -58 29 -58 5 0 6 -3 3 -6 -3 -4 -1
-16 5 -28 7 -11 13 -25 14 -31 1 -5 6 -21 11 -34 9 -23 11 -21 51 39 23 34 42
64 42 66 0 3 11 22 25 44 26 42 130 245 163 320 98 222 179 522 217 800 3 25
8 61 11 80 3 19 7 139 9 265 3 263 -12 433 -57 645 -43 206 -91 362 -162 534
-250 602 -687 1107 -1246 1438 -246 146 -496 249 -792 328 -86 22 -88 23 -88
14z"/>
<path d="M2200 5894 c-105 -29 -277 -88 -348 -120 -29 -13 -55 -24 -58 -24
-10 0 -221 -107 -294 -150 -158 -92 -358 -234 -470 -335 -65 -58 -258 -252
-310 -310 -51 -58 -191 -245 -242 -325 -195 -300 -342 -658 -411 -1000 -33
-161 -37 -192 -56 -360 -9 -79 -7 -507 3 -575 3 -22 9 -60 12 -85 4 -25 8 -52
9 -60 5 -42 17 -110 26 -151 6 -26 12 -53 13 -60 18 -91 87 -312 136 -435 96
-243 291 -594 317 -572 7 6 10 14 7 19 -3 5 0 9 5 9 6 0 10 3 9 8 -1 4 11 41
27 82 16 41 30 77 31 80 0 3 4 13 7 23 10 24 18 51 19 57 0 3 5 14 11 25 6 11
10 23 9 28 -1 4 3 7 9 7 6 0 9 7 5 15 -3 8 -1 15 4 15 6 0 9 3 8 8 -1 4 4 21
11 37 7 17 15 39 17 49 2 11 9 23 15 26 6 4 10 10 9 14 -1 4 1 17 5 29 4 12 7
25 6 30 -1 4 4 7 11 7 6 0 9 3 6 6 -5 5 10 46 55 154 6 14 9 29 8 34 -1 5 3
12 8 16 6 3 12 15 14 25 2 11 8 30 15 42 7 12 13 30 15 40 2 10 9 28 15 41 7
12 9 22 5 22 -4 0 -2 4 5 9 7 4 14 18 15 29 1 12 5 22 9 22 4 0 7 3 7 7 -1 5
0 11 1 16 1 4 3 10 5 15 1 4 6 18 12 32 6 14 11 28 12 32 1 4 10 28 21 52 10
24 16 47 13 50 -4 3 -1 6 5 6 7 0 12 6 12 13 0 6 20 63 45 126 25 63 45 120
45 128 0 7 5 13 12 13 6 0 8 3 5 7 -4 3 -2 12 4 20 6 7 8 13 4 13 -4 0 -1 7 6
16 7 9 14 23 15 31 1 8 6 22 10 31 4 9 8 19 9 22 1 3 5 12 8 20 24 57 79 207
80 218 0 6 4 12 9 12 5 0 6 5 3 10 -3 5 -1 10 6 10 7 0 10 3 6 6 -3 4 0 19 9
35 8 16 14 30 14 31 -2 6 12 45 26 71 8 15 12 27 8 27 -3 0 -2 6 4 13 6 6 11
14 11 17 0 3 6 21 13 40 7 19 11 38 10 43 -1 4 3 7 9 7 5 0 7 5 4 10 -3 6 -1
10 4 10 6 0 10 3 10 8 -1 4 0 10 1 15 1 4 3 10 5 15 1 4 7 20 13 35 7 16 12
30 12 31 0 2 8 21 17 42 10 22 18 44 19 49 0 6 9 28 19 50 9 22 19 47 20 55 2
8 4 16 5 18 2 1 3 5 4 10 1 4 9 23 18 42 9 19 25 60 37 90 11 30 26 69 32 85
7 17 11 36 10 43 -1 6 3 12 9 12 5 0 10 8 10 18 0 10 3 22 8 26 4 4 7 11 8 14
0 4 6 21 13 37 7 17 14 35 15 40 1 6 9 26 18 46 9 20 19 47 23 60 4 13 12 29
17 36 5 7 7 17 3 23 -3 5 -1 10 5 10 6 0 8 5 5 10 -3 6 -1 10 6 10 7 0 9 3 6
6 -3 4 -1 16 5 28 7 11 13 24 14 29 1 4 3 10 4 15 1 4 2 10 1 15 0 4 4 7 11 7
6 0 9 3 5 6 -3 4 0 19 8 34 8 15 11 30 8 34 -4 3 0 6 7 6 7 0 10 3 7 7 -4 3
-3 11 1 17 5 6 16 34 26 61 10 28 20 57 23 65 4 8 5 18 5 23 -1 4 3 7 8 7 6 0
10 6 9 13 -1 6 6 30 16 52 9 22 18 45 19 50 1 6 9 25 18 43 10 19 12 30 5 25
-7 -3 -3 3 7 15 11 12 16 22 11 22 -4 0 -2 7 5 15 7 8 10 15 6 15 -4 0 0 10 9
23 8 13 12 27 8 30 -3 4 0 7 7 7 7 0 10 3 7 6 -3 4 -1 16 5 28 7 11 13 29 15
39 2 10 11 34 22 55 10 20 28 66 40 101 12 36 27 74 34 85 11 20 13 28 20 60
2 8 9 21 16 30 7 9 11 16 8 16 -3 0 5 25 19 56 13 30 26 63 27 72 1 9 5 22 9
27 20 32 74 195 64 194 -6 -1 -49 -12 -96 -25z"/>
<path d="M2952 4683 c-8 -16 -34 -87 -38 -105 -1 -5 -3 -11 -4 -15 -1 -5 -2
-11 -1 -15 0 -5 -4 -8 -11 -8 -6 0 -9 -3 -5 -6 3 -4 0 -19 -8 -34 -8 -15 -11
-30 -8 -34 4 -3 2 -6 -4 -6 -5 0 -10 -6 -11 -12 0 -12 -24 -81 -39 -118 -3 -8
-5 -19 -4 -24 1 -5 -3 -12 -8 -16 -6 -3 -12 -15 -14 -25 -1 -11 -6 -26 -10
-32 -5 -7 -5 -13 0 -13 4 0 3 -4 -2 -8 -6 -4 -20 -36 -32 -72 -30 -88 -52
-152 -60 -170 -3 -8 -5 -19 -4 -24 1 -5 -3 -13 -10 -17 -7 -4 -13 -16 -14 -26
0 -10 -4 -24 -9 -31 -4 -6 -4 -12 1 -12 4 0 2 -4 -5 -9 -7 -4 -14 -18 -15 -29
-1 -12 -6 -22 -11 -22 -5 0 -7 -2 -4 -5 3 -3 -8 -41 -24 -83 -16 -42 -30 -81
-31 -87 -2 -5 -6 -16 -10 -22 -5 -7 -10 -21 -12 -30 -4 -20 -61 -178 -75 -208
-7 -16 -19 -51 -25 -75 -1 -3 -8 -18 -15 -35 -7 -16 -12 -38 -12 -47 0 -10 -3
-18 -9 -18 -5 0 -8 -3 -7 -7 0 -5 -1 -15 -4 -23 -4 -8 -9 -24 -14 -35 -4 -11
-8 -23 -8 -27 -1 -3 -4 -10 -8 -14 -5 -4 -8 -17 -8 -30 0 -12 -3 -24 -7 -26
-5 -1 -21 -41 -37 -88 -15 -47 -35 -100 -43 -118 -8 -18 -16 -40 -18 -50 -2
-9 -11 -35 -20 -57 -10 -22 -23 -58 -29 -80 l-13 -40 781 2 781 2 -4 23 c-1
13 -6 25 -10 28 -4 3 -13 25 -21 50 -7 25 -18 51 -23 58 -5 6 -7 12 -4 12 5 0
-16 59 -48 135 -5 11 -9 25 -10 30 0 6 -6 20 -13 32 -7 12 -13 30 -15 40 -2
10 -10 32 -17 48 -7 17 -14 37 -16 45 -2 8 -7 23 -13 35 -18 37 -74 190 -74
203 0 6 -4 12 -9 12 -4 0 -8 6 -8 13 0 7 -14 48 -31 92 -17 44 -32 85 -33 90
-3 10 -19 53 -33 85 -8 19 -8 19 -17 53 -5 15 -12 27 -18 27 -5 0 -7 4 -3 10
3 5 1 17 -4 27 -5 10 -20 50 -35 88 -14 39 -29 81 -34 95 -5 14 -11 30 -12 35
-1 6 -6 16 -12 23 -6 6 -7 12 -4 12 4 0 1 10 -6 23 -7 12 -13 25 -14 30 -1 4
-3 10 -4 15 -1 4 -2 10 -1 15 0 4 -4 7 -11 7 -6 0 -9 3 -6 6 5 4 -23 86 -57
169 -5 11 -9 23 -10 28 -2 4 -4 10 -5 15 -1 4 -2 10 -1 15 0 4 -4 7 -10 7 -5
0 -8 4 -5 8 2 4 -1 21 -8 37 -8 17 -21 50 -31 75 -9 25 -23 59 -30 75 -7 17
-16 45 -19 63 -4 17 -12 32 -18 32 -6 0 -8 7 -4 15 3 8 1 15 -5 15 -6 0 -8 4
-4 9 3 5 1 12 -5 16 -6 4 -8 11 -5 16 4 5 2 9 -4 9 -6 0 -14 -8 -19 -17z"/>
<path d="M1862 1628 c-22 -6 -32 -17 -43 -50 -8 -24 -13 -46 -11 -50 1 -5 -3
-8 -10 -8 -6 0 -8 -3 -5 -7 4 -3 3 -11 -2 -17 -6 -7 -12 -23 -15 -36 -2 -14
-12 -43 -22 -65 -10 -22 -18 -43 -18 -47 -1 -3 -4 -10 -8 -14 -5 -4 -8 -17 -8
-29 0 -11 -5 -26 -12 -33 -7 -7 -9 -12 -5 -12 4 0 -2 -18 -13 -40 -11 -23 -18
-45 -15 -50 3 -6 2 -10 -2 -10 -5 0 -9 -10 -10 -22 -1 -11 -8 -25 -15 -29 -7
-5 -10 -9 -6 -9 4 0 -1 -20 -12 -45 -11 -25 -17 -45 -13 -45 3 0 1 -6 -5 -12
-6 -7 -11 -16 -11 -21 0 -4 -7 -22 -14 -40 -13 -31 -39 -104 -43 -119 -1 -5
-3 -11 -4 -15 -1 -5 -2 -11 -1 -15 0 -5 -3 -8 -7 -8 -5 0 -9 -6 -9 -12 -1 -15
-26 -81 -33 -88 -6 -6 -12 -30 -13 -47 0 -7 -5 -13 -10 -13 -6 0 -8 -3 -4 -6
3 -4 -1 -23 -9 -43 -9 -20 -17 -40 -18 -46 -1 -5 -7 -19 -13 -31 -7 -11 -9
-25 -5 -30 19 -28 277 -163 443 -232 125 -52 360 -126 462 -145 15 -3 35 -8
45 -11 30 -9 183 -35 252 -42 25 -3 59 -8 75 -11 52 -9 487 -11 565 -2 41 4
100 11 130 14 30 3 62 8 70 10 15 4 46 10 115 21 81 12 311 76 433 120 129 46
424 185 518 243 43 27 50 36 46 57 -2 13 -8 24 -13 24 -5 0 -8 3 -7 8 2 7 -21
80 -31 97 -3 6 -6 15 -7 20 -1 6 -8 24 -15 40 -7 17 -13 33 -14 38 -2 4 -4 10
-5 15 -1 4 -2 10 -1 15 0 4 -4 7 -10 7 -5 0 -8 4 -5 9 3 4 -1 16 -8 27 -8 10
-12 24 -9 31 3 7 1 13 -5 13 -9 0 -27 55 -23 73 0 4 -3 7 -9 7 -5 0 -10 9 -10
19 0 11 -4 22 -10 26 -5 3 -7 12 -3 20 3 8 0 15 -6 15 -6 0 -11 8 -11 18 0 10
-3 22 -7 26 -5 4 -9 12 -9 17 -1 5 -3 11 -4 14 -1 3 -3 8 -5 13 -2 7 -4 12
-21 57 -4 11 -8 22 -9 25 -1 3 -7 18 -13 33 -7 16 -12 33 -12 38 0 5 -4 17 -9
27 -16 29 -43 94 -45 106 -1 6 -5 17 -9 24 -5 6 -5 12 0 12 4 0 3 4 -2 8 -6 4
-16 25 -23 47 -8 22 -25 70 -39 107 l-26 67 -236 1 c-1135 5 -2016 4 -2039 -2z"/>
</g>
</svg>
